<?xml version="1.0" encoding="utf-8"?>
<!-- Generator: Adobe Illustrator 25.3.1, SVG Export Plug-In . SVG Version: 6.00 Build 0)  -->
<svg version="1.1" id="Layer_1" xmlns="http://www.w3.org/2000/svg" xmlns:xlink="http://www.w3.org/1999/xlink" x="0px" y="0px"
	 viewBox="0 0 700 351.1" style="enable-background:new 0 0 700 351.1;" xml:space="preserve">
<style type="text/css">
	.st0{fill:#DA3AB3;}
	.st1{fill:#00B3E3;}
	.st2{fill:#05CE7C;}
	.st3{fill:#FFC843;}
	.st4{fill:#FF6B00;}
	.st5{fill:#FF4338;}
</style>
<g>
	<path class="st0" d="M315.1,351.1c0-0.4-0.1-0.7-0.1-1.1c0-19.3,15.7-35,35-35s35,15.7,35,35c0,0.4-0.1,0.7-0.1,1.1H700
		c0-0.4,0-0.7,0-1.1C700,156.7,543.3,0,350,0S0,156.7,0,350c0,0.4,0,0.7,0,1.1H315.1z"/>
	<path class="st1" d="M262.6,351.1c0-0.4-0.1-0.7-0.1-1.1c0-48.2,39.3-87.5,87.5-87.5s87.5,39.3,87.5,87.5c0,0.4,0,0.7-0.1,1.1H700
		c0-0.4,0-0.7,0-1.1C700,156.7,543.3,0,350,0S0,156.7,0,350c0,0.4,0,0.7,0,1.1H262.6z"/>
	<path class="st2" d="M210.1,351.1c0-0.4-0.1-0.7-0.1-1.1c0-77.2,62.8-140,140-140s140,62.8,140,140c0,0.4-0.1,0.7-0.1,1.1h210
		c0-0.4,0-0.7,0-1.1C700,156.7,543.3,0,350,0S0,156.7,0,350c0,0.4,0,0.7,0,1.1H210.1z"/>
	<path class="st3" d="M157.5,351.1c0-0.4,0-0.7,0-1.1c0-106.1,86.4-192.5,192.5-192.5S542.5,243.9,542.5,350c0,0.4,0,0.7,0,1.1H700
		c0-0.4,0-0.7,0-1.1C700,156.7,543.3,0,350,0S0,156.7,0,350c0,0.4,0,0.7,0,1.1H157.5z"/>
	<path class="st4" d="M105,351.1c0-0.4,0-0.7,0-1.1c0-135.1,109.9-245,245-245s245,109.9,245,245c0,0.4,0,0.7,0,1.1h105
		c0-0.4,0-0.7,0-1.1C700,156.7,543.3,0,350,0S0,156.7,0,350c0,0.4,0,0.7,0,1.1H105z"/>
	<path class="st5" d="M52.5,351.1c0-0.4,0-0.7,0-1.1C52.5,186,186,52.5,350,52.5S647.5,186,647.5,350c0,0.4,0,0.7,0,1.1H700
		c0-0.4,0-0.7,0-1.1C700,156.7,543.3,0,350,0S0,156.7,0,350c0,0.4,0,0.7,0,1.1H52.5z"/>
</g>
</svg>
