<?xml version="1.0" encoding="utf-8"?>
<!-- Generator: Adobe Illustrator 25.3.1, SVG Export Plug-In . SVG Version: 6.00 Build 0)  -->
<svg version="1.1" id="Layer_1" xmlns="http://www.w3.org/2000/svg" xmlns:xlink="http://www.w3.org/1999/xlink" x="0px" y="0px"
	 viewBox="0 0 648 108" style="enable-background:new 0 0 648 108;" xml:space="preserve">
<style type="text/css">
	.st0{fill:#DA3AB3;}
	.st1{fill:#00B3E3;}
	.st2{fill:#00299F;}
	.st3{fill:#05CE7C;}
	.st4{fill:#FF6B00;}
	.st5{fill:#055600;}
	.st6{fill:#FFC843;}
	.st7{fill:#008C3C;}
	.st8{fill:#DA2D2F;}
	.st9{fill:#00202A;}
	.st10{fill:#004B00;}
	.st11{fill:#FF4338;}
	.st12{fill:#002F32;}
	.st13{fill:#042F57;}
	.st14{fill:#05361B;}
</style>
<g>
	<g>
		<polyline class="st0" points="38.3,70.5 17.9,70.5 17.9,79.2 9.1,79.2 9.1,70.5 9.1,79.2 38.3,79.2 38.3,70.5 		"/>
		<polyline class="st1" points="17.9,28.9 9.1,28.9 9.1,70.5 17.9,70.5 17.9,28.9 		"/>
		<polyline class="st2" points="17.9,70.5 9.1,70.5 9.1,79.2 17.9,79.2 17.9,70.5 		"/>
	</g>
	<g>
		<path class="st3" d="M60.7,28.8c-4.4,0-8.7,1.8-11.8,4.9S44,41.1,44,45.6v16.9c0,9.2,7.5,16.7,16.7,16.7s16.7-7.4,16.7-16.7v-4.1
			h-8.7v4.1c0,4.4-3.6,8-8,8c-4.4,0-8-3.6-8-8V45.6c0-3.3,2-6.2,5-7.4c3-1.2,6.5-0.6,8.8,1.7l6.2-6.2C69.5,30.6,65.2,28.8,60.7,28.8
			"/>
		<polyline class="st4" points="77.5,49.6 60.7,49.6 60.7,58.3 68.8,58.3 68.8,49.6 77.5,49.6 77.5,58.3 77.5,49.6 		"/>
		<polyline class="st5" points="77.5,49.6 68.8,49.6 68.8,58.3 77.5,58.3 77.5,49.6 		"/>
	</g>
	<g>
		<path class="st6" d="M112.7,51.7c-2.7,4.1-7.4,6.6-12.3,6.7h4.8c3.3,0,6.1,2.7,6.1,6.1c0,3.3-2.7,6.1-6.1,6.1H94.3v8.7h-8.7h19.6
			c6.7,0,12.5-4.4,14.2-10.9S118.4,55.1,112.7,51.7"/>
		<path class="st1" d="M81.8,28.8L81.8,28.8v8.7h3.8v12.1h8.7V37.5H81.8L81.8,28.8 M94.3,58.3h-8.7v12.1h8.7V58.3"/>
		<polyline class="st7" points="94.3,70.4 85.6,70.4 85.6,79.1 94.3,79.1 94.3,70.4 		"/>
		<path class="st0" d="M100.3,28.8H86.2c4.5,0,8.1,3.6,8.1,8.1v0.6h6.1c2.2,0,4.2,1.1,5.3,3c1.1,1.9,1.1,4.2,0,6.1
			c-1.1,1.9-3.1,3-5.3,3h4.8c2.6,0,5.2,0.7,7.5,2.1c3-4.5,3.2-10.3,0.7-15.1S105.8,28.8,100.3,28.8"/>
		<path class="st8" d="M105.2,49.6H94.3v8.7h6.1c5,0,9.6-2.5,12.3-6.7C110.4,50.3,107.8,49.6,105.2,49.6"/>
		<path class="st2" d="M86.2,28.8h-4.4v8.7h12.5v-0.6C94.3,32.5,90.6,28.8,86.2,28.8"/>
		<polyline class="st9" points="94.3,49.6 85.6,49.6 85.6,58.3 94.3,58.3 94.3,49.6 		"/>
	</g>
	<g>
		<polyline class="st4" points="143.1,37.4 134.4,37.4 134.4,79.1 143.1,79.1 143.1,37.4 		"/>
		<polyline class="st3" points="153.3,28.7 124.2,28.7 124.2,37.4 134.4,37.4 134.4,28.7 143.1,28.7 143.1,37.4 153.3,37.4 
			153.3,28.7 		"/>
		<polyline class="st5" points="143.1,28.7 134.4,28.7 134.4,37.4 143.1,37.4 143.1,28.7 		"/>
	</g>
	<g>
		<path class="st4" d="M174.3,28.8c-9.2,0-16.7,7.5-16.7,16.7v16.9c0,6,3.2,11.6,8.4,14.5c5.2,3,11.6,2.9,16.8-0.1
			c-0.2-0.2-0.5-0.4-0.7-0.6l-6-6c-2.4,0.6-4.9,0-6.8-1.5s-3.1-3.8-3.1-6.3V45.5c0-4.4,3.6-8,8-8c4.4,0,8,3.6,8,8v16.9
			c0,0.5,0,1-0.1,1.5l6.1,6.1c0.2,0.2,0.4,0.3,0.7,0.4c1.3-2.5,2-5.2,2-8V45.5C191.1,36.3,183.6,28.8,174.3,28.8"/>
		<path class="st1" d="M176.5,58.1l-6.2,6.1l5.9,5.9c3.1-0.7,5.4-3.2,6-6.3L176.5,58.1 M189,70.4c-1.5,2.6-3.6,4.9-6.2,6.4
			c1.8,1.5,4.1,2.3,6.4,2.3h4.4v-8.7h-4.4C189.2,70.4,189.1,70.4,189,70.4"/>
		<path class="st10" d="M182.2,63.9c-0.6,3.1-2.9,5.6-6,6.3l6,6c0.2,0.2,0.4,0.4,0.7,0.6c2.6-1.5,4.7-3.8,6.2-6.4
			c-0.3,0-0.5-0.2-0.7-0.4L182.2,63.9"/>
	</g>
	<g>
		<path class="st3" d="M220.9,50.4H213v7.3h7.9V50.4 M205.8,50.4h-7.9v7.3h7.9V50.4"/>
		<path class="st4" d="M213,42.5h-7.3v7.9h7.3V42.5 M213,57.6h-7.3v7.9h7.3V57.6"/>
		<polyline class="st5" points="213,50.4 205.8,50.4 205.8,57.6 213,57.6 213,50.4 		"/>
	</g>
	<g>
		<polyline class="st0" points="245.9,28.7 245.9,28.7 245.9,37.4 249.7,37.4 249.7,79.1 258.4,79.1 258.4,58.3 249.7,58.3 
			249.7,49.5 249.7,49.5 258.4,49.5 258.4,37.4 245.9,37.4 245.9,28.7 		"/>
		<path class="st6" d="M264.4,28.7h-14.2c4.5,0,8.1,3.6,8.1,8.1v0.6h6.1c3.3,0,6,2.6,6.1,5.9c0.1,3.3-2.5,6-5.8,6.2
			c3.9,0.1,7.5,1.6,10.2,4.4c4.2-4.2,5.5-10.6,3.2-16.1C275.8,32.3,270.4,28.7,264.4,28.7 M264.4,58.2h-6.1v0L264.4,58.2
			c0.1,0,0.1,0,0.2,0C264.6,58.3,264.5,58.2,264.4,58.2"/>
		<path class="st8" d="M250.2,28.7h-4.4v8.7h12.5v-0.6C258.4,32.4,254.7,28.7,250.2,28.7 M249.7,49.5L249.7,49.5v8.7h8.7v0h-8.7
			V49.5"/>
		<path class="st1" d="M264.4,49.5h-6.1v0L264.4,49.5c0.1,0,0.1,0,0.2,0C264.6,49.5,264.5,49.5,264.4,49.5 M274.9,53.9
			c-2.7,2.7-6.4,4.3-10.2,4.4c3.3,0.1,5.8,2.8,5.8,6v14.8h8.7V64.3C279.2,60.4,277.6,56.7,274.9,53.9"/>
		<polyline class="st2" points="258.4,49.5 249.7,49.5 249.7,49.5 258.4,49.5 258.4,49.5 		"/>
		<path class="st7" d="M264.6,49.5c-0.1,0-0.1,0-0.2,0h-6.1v8.7h6.1c0.1,0,0.1,0,0.2,0c3.9-0.1,7.5-1.6,10.2-4.4
			C272.2,51.2,268.5,49.6,264.6,49.5"/>
		<polyline class="st9" points="258.4,49.5 249.7,49.5 249.7,58.2 258.4,58.2 258.4,49.5 		"/>
	</g>
	<g>
		<path class="st11" d="M315.9,47.5h-8.7v1.7c5.3,2.7,8.7,8.2,8.7,14.1V47.5 M315.9,63.3c0,6-3.4,11.4-8.7,14.1v1.7h8.7V63.3"/>
		<path class="st1" d="M300.1,47.5c-6.6,0-12.4,4-14.8,10.1c-2.4,6.1-0.7,13,4.2,17.4c4.9,4.4,11.9,5.3,17.8,2.4V63.3
			c0,2.9-1.7,5.5-4.4,6.6c-2.7,1.1-5.7,0.5-7.8-1.5c-2-2-2.7-5.1-1.5-7.8c1.1-2.7,3.7-4.4,6.6-4.4c3.9,0,7.1,3.2,7.1,7.1V49.2
			C305,48.1,302.6,47.5,300.1,47.5"/>
		<path class="st12" d="M307.2,49.2v14.1v14.1c5.3-2.7,8.7-8.2,8.7-14.1l0,0C315.9,57.4,312.6,51.9,307.2,49.2"/>
	</g>
	<g>
		<polyline class="st1" points="330.4,47.5 321.7,47.5 321.7,79.2 330.4,79.2 330.4,47.5 		"/>
		<polyline class="st11" points="330.4,28.9 321.7,28.9 321.7,38.1 330.4,38.1 330.4,28.9 		"/>
	</g>
	<g>
		<path class="st0" d="M344.9,47.5h-8.7v31.7V61.4c0-5.7,3.4-10.8,8.7-12.9V47.5"/>
		<path class="st3" d="M350.1,47.5c-1.8,0-3.6,0.3-5.2,1v12.9c0-2.9,2.3-5.2,5.2-5.2s5.2,2.3,5.2,5.2v17.8h8.7V61.4
			C364,53.7,357.8,47.5,350.1,47.5"/>
		<path class="st13" d="M344.9,48.5c-5.3,2.1-8.7,7.2-8.7,12.9v17.8h8.7V48.5"/>
	</g>
	<g>
		<path class="st0" d="M378.5,28.8h-8.7v50.4h8.7v-1.7c-5.3-2.7-8.7-8.2-8.7-14.1s3.4-11.5,8.7-14.1L378.5,28.8"/>
		<path class="st6" d="M385.6,47.5c-2.5,0-4.9,0.6-7.1,1.7v28.3c5.8,3,12.9,2,17.8-2.4c4.9-4.4,6.5-11.3,4.2-17.4
			C398.1,51.5,392.2,47.5,385.6,47.5 M385.6,70.5c-3.9,0-7.1-3.2-7.1-7.1s3.2-7.1,7.1-7.1s7.1,3.2,7.1,7.1
			C392.8,67.3,389.6,70.5,385.6,70.5"/>
		<path class="st8" d="M378.5,49.2c-5.3,2.7-8.7,8.2-8.7,14.1c0,6,3.4,11.5,8.7,14.1L378.5,49.2"/>
	</g>
	<g>
		<path class="st6" d="M421.6,47.5c-6.4,0-12.2,3.9-14.6,9.8s-1.1,12.7,3.4,17.3c4.5,4.5,11.3,5.9,17.3,3.4
			c5.9-2.5,9.8-8.2,9.8-14.6C437.5,54.6,430.4,47.5,421.6,47.5 M421.6,70.4c-2.9,0-5.5-1.7-6.6-4.4c-1.1-2.7-0.5-5.7,1.5-7.8
			c2-2,5.1-2.7,7.8-1.5c2.7,1.1,4.4,3.7,4.4,6.6C428.8,67.3,425.6,70.4,421.6,70.4"/>
	</g>
	<g>
		<path class="st11" d="M461.6,47.5L461.6,47.5v17.8c0,2.9-2.3,5.2-5.2,5.2s-5.2-2.3-5.2-5.2V47.5h-8.7v17.8
			c0,5.6,3.3,10.6,8.4,12.8c5.1,2.2,11,1.1,15.1-2.7c-2.8-2.6-4.4-6.3-4.4-10.1L461.6,47.5"/>
		<path class="st3" d="M489.5,47.5h-8.7v17.8c0,1.9-1,3.6-2.6,4.6s-3.6,0.9-5.2,0s-2.6-2.7-2.6-4.6V47.5v17.8
			c0,3.8-1.6,7.5-4.4,10.1c4,3.8,10,4.9,15.1,2.7c5.1-2.2,8.4-7.2,8.4-12.8V47.5"/>
		<path class="st14" d="M470.4,47.5h-8.7v17.8c0,3.8,1.6,7.5,4.4,10.1c2.8-2.6,4.4-6.3,4.4-10.1V47.5"/>
	</g>
	<g>
		<path class="st6" d="M515.9,43.6L515.9,43.6v35.6h8.7V57C519.3,54.7,515.9,49.4,515.9,43.6"/>
		<path class="st1" d="M524.6,43.6L524.6,43.6V57c1.9,0.9,4,1.3,6.1,1.3h16.1v-8.7h-16.1C527.3,49.6,524.6,46.9,524.6,43.6"/>
		<path class="st7" d="M546.7,28.8h-16.1c-7,0-13,4.9-14.4,11.7c-1.5,6.8,2,13.7,8.4,16.6V43.6c0-3.3,2.7-6.1,6.1-6.1h16.1V28.8"/>
	</g>
	<g>
		<polyline class="st1" points="561.2,28.9 552.5,28.9 552.5,79.2 561.2,79.2 561.2,28.9 		"/>
	</g>
	<g>
		<path class="st11" d="M598,47.5h-8.7v1.7c5.3,2.7,8.7,8.2,8.7,14.1V47.5 M598,63.3c0,6-3.4,11.4-8.7,14.1v1.7h8.7V63.3"/>
		<path class="st1" d="M582.1,47.5c-6.6,0-12.4,4-14.8,10.1c-2.4,6.1-0.7,13,4.2,17.4c4.9,4.4,11.9,5.3,17.8,2.4V63.3
			c0,2.9-1.7,5.5-4.4,6.6c-2.7,1.1-5.7,0.5-7.8-1.5c-2-2-2.7-5.1-1.5-7.8c1.1-2.7,3.7-4.4,6.6-4.4c3.9,0,7.1,3.2,7.1,7.1V49.2
			C587,48.1,584.6,47.5,582.1,47.5"/>
		<path class="st12" d="M589.3,49.2v14.1v14.1c5.3-2.7,8.7-8.2,8.7-14.1l0,0C598,57.4,594.6,51.9,589.3,49.2"/>
	</g>
	<g>
		<path class="st11" d="M618.8,47.5c-6.1,0-11.6,3.4-14.2,8.9c-2.7,5.4-2,11.9,1.7,16.7c1.8-1.7,4.2-2.6,6.7-2.6h5.8
			c-3.9,0-7.1-3.2-7.1-7.1s3.2-7.1,7.1-7.1s7.1,3.2,7.1,7.1l0,0V56c0-2,0.7-4,2.1-5.6C625.4,48.5,622.1,47.5,618.8,47.5"/>
		<path class="st1" d="M638.9,47.5h-4.4c-2.3,0-4.4,0.9-6,2.5c-0.1,0.1-0.3,0.3-0.4,0.5c4.2,3,6.6,7.8,6.6,12.9l0,0v-7.1h4.2V47.5
			 M634,67.9c-2,6.7-8.2,11.3-15.2,11.3l0,0C625.8,79.2,632,74.6,634,67.9 M606.3,73.1c-3.1,2.8-4.2,7.2-2.7,11.1
			c1.5,3.9,5.2,6.5,9.4,6.5h11.5c0.8,0,1.4,0.6,1.4,1.4c0,0.8-0.6,1.4-1.4,1.4h-10.1v8.7h10.1c5.6,0,10.1-4.5,10.1-10.1
			s-4.5-10.1-10.1-10.1h-11.5c-0.8,0-1.4-0.6-1.4-1.4s0.6-1.4,1.4-1.4h5.8C614,79.2,609.3,76.9,606.3,73.1"/>
		<path class="st12" d="M628,50.4C626.7,52,626,54,626,56v7.3c0,3.9-3.2,7.1-7.1,7.1h-5.8c-2.5,0-4.9,0.9-6.7,2.6
			c3,3.9,7.6,6.1,12.5,6.1l0,0c6.9,0,13-4.4,15.1-11C636,61.6,633.7,54.4,628,50.4"/>
	</g>
</g>
</svg>
